Coordinates
version=1
nRows=11
nColumns=63
inDegrees=yes

Units are S.I. units (second, meters, Newtons, ...)
If the header above contains a line with 'inDegrees', this indicates whether rotational values are in degrees (yes) or radians (no).

endheader
time	pelvis_tilt	pelvis_list	pelvis_rotation	pelvis_tx	pelvis_ty	pelvis_tz	hip_flexion_r	hip_adduction_r	hip_rotation_r	knee_angle_r	knee_angle_r_beta	ankle_angle_r	subtalar_angle_r	mtp_angle_r	hip_flexion_l	hip_adduction_l	hip_rotation_l	knee_angle_l	knee_angle_l_beta	ankle_angle_l	subtalar_angle_l	mtp_angle_l	L5_S1_Flex_Ext	L5_S1_Lat_Bending	L5_S1_axial_rotation	L4_L5_Flex_Ext	L4_L5_Lat_Bending	L4_L5_axial_rotation	L3_L4_Flex_Ext	L3_L4_Lat_Bending	L3_L4_axial_rotation	L2_L3_Flex_Ext	L2_L3_Lat_Bending	L2_L3_axial_rotation	L1_L2_Flex_Ext	L1_L2_Lat_Bending	L1_L2_axial_rotation	L1_T12_Flex_Ext	L1_T12_Lat_Bending	L1_T12_axial_rotation	Abs_r3	Abs_r2	Abs_r1	Abs_t1	Abs_t2	neck_flexion	neck_bending	neck_rotation	arm_flex_r	arm_add_r	arm_rot_r	elbow_flex_r	pro_sup_r	wrist_flex_r	wrist_dev_r	arm_flex_l	arm_add_l	arm_rot_l	elbow_flex_l	pro_sup_l	wrist_flex_l	wrist_dev_l
      0.00000000	      5.38282284	     -5.79523155	     90.41219292	      0.20539640	      0.96296416	      0.59637358	      2.27310629	      0.77175278	     -5.05408028	      6.07094238	      0.10595793	     24.72840803	     16.45735328	      0.00000000	      4.85330530	     -3.09583677	     -8.13662048	      9.18459319	      0.16030139	     25.59308868	     11.50301427	      0.00000000	      0.03536559	      0.31378174	     -2.17525741	      0.06567744	      0.41732972	     -2.31121100	      0.05810213	      0.76292893	     -2.31121100	      0.04041933	      0.76292893	     -1.90335023	      0.03284049	      0.63986373	     -1.76739664	      0.02020790	      0.48604792	     -1.63144306	      0.25261288	      3.54956185	    -12.09812913	      0.00000000	      0.00000000	      9.59711948	      3.15309923	     20.41030438	     20.22671416	     -8.14809595	     78.18602499	     47.07218416	     84.48874984	      4.94964779	      4.08995914	      4.09606078	     -8.15335715	     39.69208277	     50.51105536	     84.92560631	      6.44847886	     15.19204665
      0.02222222	      5.10023553	     -5.91043222	     90.23422365	      0.20574669	      0.96302118	      0.59494175	      2.28185006	      0.50661140	     -4.48962045	      5.75493886	      0.10044263	     25.22449741	     15.85500958	      0.00000000	      4.79538512	     -2.74852008	     -7.84009306	      8.70658175	      0.15195852	     26.59957820	     11.87925640	      0.00000000	      0.09802787	      0.28736445	     -2.26275291	      0.18204756	      0.38219471	     -2.40417497	      0.16104999	      0.69869791	     -2.40417497	      0.11203605	      0.69869791	     -1.97990880	      0.09102868	      0.58599358	     -1.83848674	      0.05601312	      0.44512753	     -1.69706469	      0.70020326	      3.25072408	    -12.58475288	      0.00000000	      0.00000000	      8.95229282	      2.40192005	     20.24077123	     20.01378172	     -7.48091336	     78.12625750	     46.08655639	     82.52944551	      5.57201033	      4.03520092	      2.24315031	     -7.53556635	     35.55296957	     51.01146515	     80.83864217	      4.70129694	     13.15631302
      0.04444444	      5.02111342	     -5.83183328	     90.13267069	      0.20583749	      0.96324100	      0.59452497	      2.14429352	      0.48479787	     -3.16299134	      5.48475261	      0.09572699	     25.38603677	     14.16059799	      0.00000000	      4.66515716	     -2.65017672	     -7.73509381	      8.46293133	      0.14770602	     27.30788145	     12.26898241	      0.00000000	      0.11863887	      0.29412953	     -2.37034600	      0.22032424	      0.39119228	     -2.51849263	      0.19491180	      0.71514655	     -2.51849263	      0.13559236	      0.71514655	     -2.07405275	      0.11016805	      0.59978894	     -1.92590613	      0.06779025	      0.45560665	     -1.77775950	      0.84742557	      3.32725211	    -13.18315335	      0.00000000	      0.00000000	      8.19335604	      2.17412660	     21.42231589	     21.55597143	     -6.94562059	     82.97261506	     45.16374305	     71.36119975	      5.08648144	      4.19699121	      2.17289570	     -8.20396185	     37.91480138	     51.70962884	     64.64959208	     -1.28531944	     11.52273025
      0.06666667	      4.95835337	     -5.74925401	     90.06826398	      0.20586514	      0.96335429	      0.59414964	      2.06781179	      0.40560271	     -3.09636809	      5.40863740	      0.09439853	     25.64476359	     14.14117572	      0.00000000	      4.56934194	     -2.57892977	     -7.52063657	      8.37795360	      0.14622287	     27.81991912	     12.37259294	      0.00000000	      0.13616689	      0.29033185	     -2.35163634	      0.25287553	      0.38614136	     -2.49861361	      0.22370858	      0.70591285	     -2.49861361	      0.15562514	      0.70591285	     -2.05768180	      0.12644457	      0.59204470	     -1.91070452	      0.07780576	      0.44972403	     -1.76372725	      0.97262648	      3.28429191	    -13.07909582	      0.00000000	      0.00000000	      7.73629777	      1.97766742	     21.32522269	     21.56328190	     -6.79929064	     83.07359195	     44.83806348	     71.17877848	      5.12406920	      4.28924490	      2.20508463	     -8.08283487	     37.58114633	     51.72089339	     64.40096162	     -1.42011431	     11.36505772
      0.08888889	      4.83237405	     -5.61199196	     89.90646131	      0.20590504	      0.96367604	      0.59365336	      1.82734313	      0.31284717	     -1.89558962	      5.13329268	      0.08959286	     25.52280499	     12.83292667	      0.00000000	      4.27821191	     -2.38103904	     -7.09294346	      8.09924711	      0.14135853	     27.64533894	     11.69851228	      0.00000000	      0.15803703	      0.27886190	     -2.40554953	      0.29349057	      0.37088632	     -2.55589638	      0.25963904	      0.67802481	     -2.55589638	      0.18062052	      0.67802481	     -2.10485584	      0.14675319	      0.56865518	     -1.95450899	      0.09030236	      0.43195708	     -1.80416215	      1.12884271	      3.15454153	    -13.37894483	      0.00000000	      0.00000000	      6.93572465	      1.78357457	     21.29511166	     22.70894640	     -6.28451936	     87.24099457	     44.15584131	     61.49231342	      4.81803470	      4.25982751	      1.94247370	     -8.22395701	     38.09516826	     52.04077144	     58.59416654	     -3.74665154	     10.18827860
      0.11111111	      4.81069788	     -5.58252242	     89.91853813	      0.20574589	      0.96361577	      0.59350457	      1.83338958	      0.26258236	     -1.79135184	      5.15893642	      0.09004043	     25.63787793	     12.76186205	      0.00000000	      4.27964669	     -2.35888851	     -6.99301369	      8.17739426	      0.14272245	     27.69481018	     11.63907342	      0.00000000	      0.17870921	      0.27826571	     -2.39602707	      0.33188088	      0.37009339	     -2.54577876	      0.29360137	      0.67657525	     -2.54577876	      0.20424676	      0.67657525	     -2.09652368	      0.16594938	      0.56743944	     -1.94677199	      0.10211445	      0.43103359	     -1.79702030	      1.27650205	      3.14779737	    -13.32598375	      0.00000000	      0.00000000	      6.79507833	      1.75019430	     21.14497710	     22.69462624	     -6.27367074	     87.38468956	     44.06422644	     61.39447910	      4.79245927	      4.35919314	      1.96850071	     -8.12716638	     38.11435430	     51.96475347	     58.50731491	     -3.76050442	     10.20057171
      0.13333333	      4.81174234	     -5.36357555	     89.80862520	      0.20556619	      0.96393224	      0.59336698	      1.54726382	      0.24042652	     -1.73160034	      5.00642793	      0.08737865	     25.57717790	     12.84064500	      0.00000000	      4.01314747	     -2.34874114	     -7.16391525	      8.17680280	      0.14271213	     27.57500176	     11.60927427	      0.00000000	      0.17740538	      0.27789412	     -2.34905625	      0.32945954	      0.36959917	     -2.49587227	      0.29145931	      0.67567175	     -2.49587227	      0.20275661	      0.67567175	     -2.05542422	      0.16473864	      0.56668168	     -1.90860821	      0.10136944	      0.43045798	     -1.76179219	      1.26718892	      3.14359381	    -13.06474616	      0.00000000	      0.00000000	      6.42007192	      1.42623786	     20.40065919	     23.02217966	     -6.16546433	     88.23489284	     43.83589274	     61.14778122	      4.92140472	      4.64866278	      2.12635933	     -7.93101338	     38.29306125	     51.62945076	     58.31748928	     -3.73980625	     10.46075689
      0.15555556	      4.81171275	     -5.37573720	     89.79751247	      0.20555595	      0.96376081	      0.59336579	      1.60728419	      0.23672749	     -1.64459726	      5.04167951	      0.08799391	     25.75002067	     12.66416325	      0.00000000	      4.07848830	     -2.35335572	     -7.08249318	      8.31848952	      0.14518503	     27.60929881	     11.44473483	      0.00000000	      0.20464840	      0.27657500	     -2.32734560	      0.38005254	      0.36784475	     -2.47280470	      0.33621685	      0.67246445	     -2.47280470	      0.23389265	      0.67246445	     -2.03642740	      0.19003650	      0.56399174	     -1.89096830	      0.11693609	      0.42841467	     -1.74550920	      1.46178304	      3.12867170	    -12.94399800	      0.00000000	      0.00000000	      6.55292905	      1.25305962	     19.96782447	     22.98890180	     -6.18508628	     88.42231113	     43.84998800	     60.84954331	      4.79230413	      4.73428959	      2.13462702	     -7.85162950	     38.38599186	     51.48290270	     58.03539334	     -3.72670511	     10.50391690
      0.17777778	      4.85531697	     -5.07332960	     89.54295431	      0.20567303	      0.96418460	      0.59342268	      1.29308843	      0.27891392	     -0.93010795	      4.96535809	      0.08666185	     25.78751277	     12.08677721	      0.00000000	      3.68262990	     -2.39555844	     -7.35922927	      8.25883201	      0.14414381	     27.59912094	     11.39035601	      0.00000000	      0.17567270	      0.27382252	     -2.20657564	      0.32624176	      0.36418396	     -2.34448662	      0.28861267	      0.66577208	     -2.34448662	      0.20077632	      0.66577208	     -1.93075369	      0.16312967	      0.55837889	     -1.79284271	      0.10037938	      0.42415109	     -1.65493173	      1.25481250	      3.09753515	    -12.27231174	      0.00000000	      0.00000000	      6.84697669	      0.60077708	     18.43782468	     22.83604396	     -6.40270432	     88.07422447	     43.94523857	     60.50771486	      4.59553718	      4.64053099	      2.58445441	     -7.74729836	     38.99728678	     51.07421140	     57.12027802	     -3.47956298	     10.89082691
      0.20000000	      4.86056417	     -5.07795311	     89.55523616	      0.20566996	      0.96407066	      0.59337581	      1.33071487	      0.26866407	     -0.87868193	      5.05644594	      0.08825163	     25.98088009	     11.93634559	      0.00000000	      3.72070022	     -2.40105232	     -7.27776822	      8.37057487	      0.14609409	     27.68202076	     11.28621291	      0.00000000	      0.19455734	      0.27366714	     -2.20073365	      0.36131244	      0.36397729	     -2.33827951	      0.31963826	      0.66539427	     -2.33827951	      0.22235959	      0.66539427	     -1.92564195	      0.18066595	      0.55806202	     -1.78809609	      0.11117007	      0.42391039	     -1.65055024	      1.38970365	      3.09577738	    -12.23982036	      0.00000000	      0.00000000	      7.06484003	      0.53816947	     18.26824103	     22.70862267	     -6.46330513	     87.99998960	     43.99150191	     60.35969585	      4.51007636	      4.67054641	      2.55517383	     -7.74170527	     39.01375231	     51.03080405	     56.96331225	     -3.49236649	     10.83486271
      0.22222222	      4.87715172	     -4.83550857	     89.46895624	      0.20565299	      0.96434422	      0.59350549	      0.99700819	      0.32481897	      0.23216181	      4.95036477	      0.08640016	     25.80055172	     10.41854500	      0.00000000	      3.43849476	     -2.39533026	     -7.31207537	      8.37273987	      0.14613188	     27.71199589	     11.15327880	      0.00000000	      0.16229078	      0.26971304	     -2.05579755	      0.30139020	      0.35871835	     -2.18428490	      0.26662752	      0.65578029	     -2.18428490	      0.18548213	      0.65578029	     -1.79882286	      0.15070322	      0.54999884	     -1.67033551	      0.09273295	      0.41778550	     -1.54184816	      1.15922679	      3.05104788	    -11.43372923	      0.00000000	      0.00000000	      7.63267877	     -0.11317586	     16.76909891	     21.63791787	     -7.00761536	     85.05438616	     44.48749050	     60.52976000	      4.52013896	      5.69468630	      3.23439268	     -7.81030442	     40.51056929	     50.66867099	     55.31271364	     -3.58525835	     10.55647886
